# xmcd
#
# Track frame offsets:
#	150
#	32951
#	62528
#	93766
#	124297
#	156976
#	191484
#	222150
#	284832
#
# Disc length: 3811 seconds
#
# Revision: 0
# Processed by: cddbd v1.5.2PL0 Copyright (c) Steve Scherf et al.
# Submitted via: EasyCDDAExtractor 5.0.4.1
#
DISCID=850ee109
DTITLE=Various Artist - Purple Music The Master Collection 3
DYEAR=2006
DGENRE=House
TTITLE0=Jamie Lewis - I'ts over (main vocal cut)
TTITLE1=Cerrone - Not too shabby (Jamie Lewis goes disco mix)
TTITLE2=One Touch - Live your life (Benny Pecorrio mix)
TTITLE3=Delvino - True love (Edoardo Delvino main mix)
TTITLE4=The Funk Ensemble - Spanish Harlem
TTITLE5=Jamie Lewis - Cookys
TTITLE6=Sabrynaah Pope - Shelter (K.O.T. remix)
TTITLE7=Djaimin - Give you (original syndromad mix)
TTITLE8=Purple Music - Different Wallpapers
EXTD=
EXTT0=
EXTT1=
EXTT2=
EXTT3=
EXTT4=
EXTT5=
EXTT6=
EXTT7=
EXTT8=
PLAYORDER=
